<mxfile host="app.diagrams.net" agent="Mozilla/5.0 (Windows NT 10.0; Win64; x64; rv:128.0) Gecko/20100101 Firefox/128.0" version="26.2.14">
  <diagram name="Page-1" id="5f0bae14-7c28-e335-631c-24af17079c00">
    <mxGraphModel dx="1055" dy="645" grid="1" gridSize="10" guides="1" tooltips="1" connect="1" arrows="1" fold="1" page="1" pageScale="1" pageWidth="1100" pageHeight="850" background="none" math="0" shadow="0">
      <root>
        <mxCell id="0" />
        <mxCell id="1" parent="0" />
        <mxCell id="39150e848f15840c-1" value="View" style="verticalAlign=top;align=left;spacingTop=8;spacingLeft=2;spacingRight=12;shape=cube;size=10;direction=south;fontStyle=4;html=1;rounded=0;shadow=0;comic=0;labelBackgroundColor=none;strokeWidth=1;fontFamily=Verdana;fontSize=12" parent="1" vertex="1">
          <mxGeometry x="120" y="70" width="330" height="220" as="geometry" />
        </mxCell>
        <mxCell id="39150e848f15840c-2" value="Model" style="verticalAlign=top;align=left;spacingTop=8;spacingLeft=2;spacingRight=12;shape=cube;size=10;direction=south;fontStyle=4;html=1;rounded=0;shadow=0;comic=0;labelBackgroundColor=none;strokeWidth=1;fontFamily=Verdana;fontSize=12" parent="1" vertex="1">
          <mxGeometry x="530" y="70" width="330" height="220" as="geometry" />
        </mxCell>
        <mxCell id="39150e848f15840c-3" value="Control" style="verticalAlign=top;align=left;spacingTop=8;spacingLeft=2;spacingRight=12;shape=cube;size=10;direction=south;fontStyle=4;html=1;rounded=0;shadow=0;comic=0;labelBackgroundColor=none;strokeWidth=1;fontFamily=Verdana;fontSize=12" parent="1" vertex="1">
          <mxGeometry x="330" y="410" width="350" height="190" as="geometry" />
        </mxCell>
        <mxCell id="39150e848f15840c-4" value="browser" style="html=1;rounded=0;shadow=0;comic=0;labelBackgroundColor=none;strokeWidth=1;fontFamily=Verdana;fontSize=12;align=center;" parent="1" vertex="1">
          <mxGeometry x="160" y="140" width="110" height="50" as="geometry" />
        </mxCell>
        <mxCell id="39150e848f15840c-5" value="templates" style="shape=component;align=left;spacingLeft=36;rounded=0;shadow=0;comic=0;labelBackgroundColor=none;strokeWidth=1;fontFamily=Verdana;fontSize=12;html=1;" parent="1" vertex="1">
          <mxGeometry x="310" y="135" width="120" height="60" as="geometry" />
        </mxCell>
        <mxCell id="39150e848f15840c-6" value="" style="ellipse;whiteSpace=wrap;html=1;rounded=0;shadow=0;comic=0;labelBackgroundColor=none;strokeWidth=1;fontFamily=Verdana;fontSize=12;align=center;" parent="1" vertex="1">
          <mxGeometry x="360" y="230" width="20" height="20" as="geometry" />
        </mxCell>
        <mxCell id="39150e848f15840c-7" value="Models" style="shape=component;align=left;spacingLeft=36;rounded=0;shadow=0;comic=0;labelBackgroundColor=none;strokeWidth=1;fontFamily=Verdana;fontSize=12;html=1;" parent="1" vertex="1">
          <mxGeometry x="560" y="135" width="120" height="60" as="geometry" />
        </mxCell>
        <mxCell id="39150e848f15840c-8" value="MySQL" style="html=1;rounded=0;shadow=0;comic=0;labelBackgroundColor=none;strokeWidth=1;fontFamily=Verdana;fontSize=12;align=center;" parent="1" vertex="1">
          <mxGeometry x="720" y="140" width="110" height="50" as="geometry" />
        </mxCell>
        <mxCell id="39150e848f15840c-9" value="" style="ellipse;whiteSpace=wrap;html=1;rounded=0;shadow=0;comic=0;labelBackgroundColor=none;strokeWidth=1;fontFamily=Verdana;fontSize=12;align=center;" parent="1" vertex="1">
          <mxGeometry x="620" y="230" width="20" height="20" as="geometry" />
        </mxCell>
        <mxCell id="39150e848f15840c-10" value="app.py" style="shape=component;align=left;spacingLeft=36;rounded=0;shadow=0;comic=0;labelBackgroundColor=none;strokeWidth=1;fontFamily=Verdana;fontSize=12;html=1;" parent="1" vertex="1">
          <mxGeometry x="440" y="430" width="120" height="60" as="geometry" />
        </mxCell>
        <mxCell id="39150e848f15840c-11" style="edgeStyle=none;rounded=0;html=1;dashed=1;labelBackgroundColor=none;startArrow=none;startFill=0;startSize=8;endArrow=open;endFill=0;endSize=16;fontFamily=Verdana;fontSize=12;" parent="1" source="39150e848f15840c-10" target="39150e848f15840c-6" edge="1">
          <mxGeometry relative="1" as="geometry" />
        </mxCell>
        <mxCell id="AV_CrcEBHrJeG7c_BQG4-3" value="Route" style="edgeLabel;html=1;align=center;verticalAlign=middle;resizable=0;points=[];fontSize=12;" vertex="1" connectable="0" parent="39150e848f15840c-11">
          <mxGeometry x="0.0354" relative="1" as="geometry">
            <mxPoint as="offset" />
          </mxGeometry>
        </mxCell>
        <mxCell id="39150e848f15840c-12" style="edgeStyle=none;rounded=0;html=1;dashed=1;labelBackgroundColor=none;startArrow=none;startFill=0;startSize=8;endArrow=open;endFill=0;endSize=16;fontFamily=Verdana;fontSize=12;" parent="1" source="39150e848f15840c-3" target="39150e848f15840c-9" edge="1">
          <mxGeometry relative="1" as="geometry" />
        </mxCell>
        <mxCell id="39150e848f15840c-13" style="edgeStyle=elbowEdgeStyle;rounded=0;html=1;labelBackgroundColor=none;startArrow=none;startFill=0;startSize=8;endArrow=none;endFill=0;endSize=16;fontFamily=Verdana;fontSize=12;" parent="1" source="39150e848f15840c-9" target="39150e848f15840c-7" edge="1">
          <mxGeometry relative="1" as="geometry" />
        </mxCell>
        <mxCell id="39150e848f15840c-14" style="edgeStyle=elbowEdgeStyle;rounded=0;html=1;labelBackgroundColor=none;startArrow=none;startFill=0;startSize=8;endArrow=none;endFill=0;endSize=16;fontFamily=Verdana;fontSize=12;" parent="1" source="39150e848f15840c-6" target="39150e848f15840c-5" edge="1">
          <mxGeometry relative="1" as="geometry" />
        </mxCell>
        <mxCell id="39150e848f15840c-15" style="edgeStyle=orthogonalEdgeStyle;rounded=0;html=1;labelBackgroundColor=none;startArrow=none;startFill=0;startSize=8;endArrow=open;endFill=0;endSize=16;fontFamily=Verdana;fontSize=12;dashed=1;" parent="1" source="39150e848f15840c-5" target="39150e848f15840c-4" edge="1">
          <mxGeometry relative="1" as="geometry">
            <Array as="points">
              <mxPoint x="350" y="220" />
              <mxPoint x="215" y="220" />
            </Array>
          </mxGeometry>
        </mxCell>
        <mxCell id="AV_CrcEBHrJeG7c_BQG4-2" value="Jinja2 Render" style="edgeLabel;html=1;align=center;verticalAlign=middle;resizable=0;points=[];fontSize=12;" vertex="1" connectable="0" parent="39150e848f15840c-15">
          <mxGeometry x="0.3684" relative="1" as="geometry">
            <mxPoint x="40" as="offset" />
          </mxGeometry>
        </mxCell>
        <mxCell id="39150e848f15840c-16" style="edgeStyle=orthogonalEdgeStyle;rounded=0;html=1;dashed=1;labelBackgroundColor=none;startArrow=none;startFill=0;startSize=8;endArrow=open;endFill=0;endSize=16;fontFamily=Verdana;fontSize=12;" parent="1" source="39150e848f15840c-7" target="39150e848f15840c-8" edge="1">
          <mxGeometry relative="1" as="geometry" />
        </mxCell>
        <mxCell id="39150e848f15840c-17" style="edgeStyle=orthogonalEdgeStyle;rounded=0;html=1;labelBackgroundColor=none;startArrow=none;startFill=0;startSize=8;endArrow=none;endFill=0;endSize=16;fontFamily=Verdana;fontSize=12;" parent="1" source="39150e848f15840c-3" target="39150e848f15840c-2" edge="1">
          <mxGeometry relative="1" as="geometry">
            <Array as="points">
              <mxPoint x="695" y="485" />
            </Array>
          </mxGeometry>
        </mxCell>
        <mxCell id="AV_CrcEBHrJeG7c_BQG4-8" value="Data" style="edgeLabel;html=1;align=center;verticalAlign=middle;resizable=0;points=[];fontSize=12;" vertex="1" connectable="0" parent="39150e848f15840c-17">
          <mxGeometry x="0.306" y="1" relative="1" as="geometry">
            <mxPoint as="offset" />
          </mxGeometry>
        </mxCell>
        <mxCell id="39150e848f15840c-18" style="edgeStyle=orthogonalEdgeStyle;rounded=0;html=1;labelBackgroundColor=none;startArrow=none;startFill=0;startSize=8;endArrow=none;endFill=0;endSize=16;fontFamily=Verdana;fontSize=12;" parent="1" source="39150e848f15840c-3" target="39150e848f15840c-1" edge="1">
          <mxGeometry relative="1" as="geometry">
            <Array as="points">
              <mxPoint x="285" y="485" />
            </Array>
          </mxGeometry>
        </mxCell>
        <mxCell id="AV_CrcEBHrJeG7c_BQG4-4" value="Data" style="edgeLabel;html=1;align=center;verticalAlign=middle;resizable=0;points=[];fontSize=12;" vertex="1" connectable="0" parent="39150e848f15840c-18">
          <mxGeometry x="0.3429" y="-2" relative="1" as="geometry">
            <mxPoint x="-2" as="offset" />
          </mxGeometry>
        </mxCell>
        <mxCell id="AV_CrcEBHrJeG7c_BQG4-6" value="" style="edgeStyle=none;curved=1;rounded=0;orthogonalLoop=1;jettySize=auto;html=1;fontSize=12;startSize=8;endSize=8;entryX=0.25;entryY=1;entryDx=0;entryDy=0;" edge="1" parent="1" source="AV_CrcEBHrJeG7c_BQG4-5" target="39150e848f15840c-10">
          <mxGeometry relative="1" as="geometry" />
        </mxCell>
        <mxCell id="AV_CrcEBHrJeG7c_BQG4-7" value="Parse Schedule" style="edgeLabel;html=1;align=center;verticalAlign=middle;resizable=0;points=[];fontSize=12;" vertex="1" connectable="0" parent="AV_CrcEBHrJeG7c_BQG4-6">
          <mxGeometry x="-0.4667" y="-1" relative="1" as="geometry">
            <mxPoint x="-1" y="-7" as="offset" />
          </mxGeometry>
        </mxCell>
        <mxCell id="AV_CrcEBHrJeG7c_BQG4-5" value="tool.py" style="html=1;rounded=0;shadow=0;comic=0;labelBackgroundColor=none;strokeWidth=1;fontFamily=Verdana;fontSize=12;align=center;" vertex="1" parent="1">
          <mxGeometry x="350" y="540" width="110" height="50" as="geometry" />
        </mxCell>
        <mxCell id="AV_CrcEBHrJeG7c_BQG4-10" style="edgeStyle=none;curved=1;rounded=0;orthogonalLoop=1;jettySize=auto;html=1;exitX=0.5;exitY=0;exitDx=0;exitDy=0;fontSize=12;startSize=8;endSize=8;entryX=0.75;entryY=1;entryDx=0;entryDy=0;" edge="1" parent="1" source="AV_CrcEBHrJeG7c_BQG4-9" target="39150e848f15840c-10">
          <mxGeometry relative="1" as="geometry" />
        </mxCell>
        <mxCell id="AV_CrcEBHrJeG7c_BQG4-11" value="Permission Control" style="edgeLabel;html=1;align=center;verticalAlign=middle;resizable=0;points=[];fontSize=12;" vertex="1" connectable="0" parent="AV_CrcEBHrJeG7c_BQG4-10">
          <mxGeometry x="-0.0871" y="1" relative="1" as="geometry">
            <mxPoint as="offset" />
          </mxGeometry>
        </mxCell>
        <mxCell id="AV_CrcEBHrJeG7c_BQG4-9" value="permission.py" style="html=1;rounded=0;shadow=0;comic=0;labelBackgroundColor=none;strokeWidth=1;fontFamily=Verdana;fontSize=12;align=center;" vertex="1" parent="1">
          <mxGeometry x="540" y="540" width="110" height="50" as="geometry" />
        </mxCell>
      </root>
    </mxGraphModel>
  </diagram>
</mxfile>
